<svg width="94" height="12" viewBox="0 0 94 12" fill="none" xmlns="http://www.w3.org/2000/svg">
<path d="M5.14401 4.70273C5.14401 4.85848 5.27027 4.98474 5.42603 4.98474H8.89372C9.59764 4.98474 9.82776 4.71401 9.82776 4.34851C9.82776 3.96948 9.5841 3.71228 8.89372 3.71228H5.42603C5.27027 3.71228 5.14401 3.83854 5.14401 3.9943V4.70273ZM5.42603 7.81395C5.27027 7.81395 5.14401 7.94021 5.14401 8.09597V10.7537C5.14401 10.9095 5.01775 11.0357 4.86199 11.0357H0.282018C0.126264 11.0357 0 10.9095 0 10.7537V1.24631C0 1.09056 0.126264 0.964294 0.282018 0.964294H11.1273C13.2932 0.964294 15.0936 1.50577 15.0936 3.50922V3.63106C15.0936 4.4856 14.6464 5.05632 14.0912 5.42562C13.8336 5.597 13.8437 6.29294 14.1025 6.46254C14.802 6.9209 15.1478 7.6194 15.1478 8.49079V10.0205C15.1478 10.5083 15.212 10.7522 15.3154 10.9397C15.3208 10.9494 15.3237 10.9604 15.3237 10.9715C15.3237 11.007 15.295 11.0357 15.2596 11.0357H10.1476C10.0728 11.0357 9.99376 11.0069 9.97635 10.9342C9.96313 10.8789 9.96313 10.8108 9.96313 10.7244V9.50606C9.96313 8.47726 9.46227 7.81395 8.01382 7.81395H5.42603Z" fill="#FAFF00"/>
<path d="M81.1536 1.24631C81.1536 1.09056 81.2799 0.964294 81.4357 0.964294H93.0142C93.17 0.964294 93.2962 1.09056 93.2962 1.24631V3.49795C93.2962 3.6537 93.17 3.77996 93.0142 3.77996H86.4985C86.3427 3.77996 86.2164 3.90623 86.2164 4.06198V4.28308C86.2164 4.43884 86.3427 4.5651 86.4985 4.5651H92.933C93.0887 4.5651 93.215 4.69136 93.215 4.84712V7.0446C93.215 7.20036 93.0887 7.32662 92.933 7.32662H86.4985C86.3427 7.32662 86.2164 7.45289 86.2164 7.60864V7.91096C86.2164 8.06672 86.3427 8.19298 86.4985 8.19298H93.0684C93.2241 8.19298 93.3504 8.31924 93.3504 8.475V10.7537C93.3504 10.9095 93.2241 11.0357 93.0684 11.0357H81.4357C81.2799 11.0357 81.1536 10.9095 81.1536 10.7537V1.24631Z" fill="#FAFF00"/>
<path d="M68.7449 1.24631C68.7449 1.09056 68.8711 0.964294 69.0269 0.964294H73.6068C73.7626 0.964294 73.8889 1.09056 73.8889 1.24631V7.16644C73.8889 7.32219 74.0151 7.44845 74.1709 7.44845H80.5919C80.7476 7.44845 80.8739 7.57472 80.8739 7.73047V10.7537C80.8739 10.9095 80.7476 11.0357 80.5919 11.0357H69.0269C68.8711 11.0357 68.7449 10.9095 68.7449 10.7537V1.24631Z" fill="#FAFF00"/>
<path d="M53.2339 11.0357C53.0781 11.0357 52.9518 10.9095 52.9518 10.7537V1.24631C52.9518 1.09056 53.0781 0.964294 53.2339 0.964294H64.0385C67.0979 0.964294 67.8559 2.10139 67.8559 3.22495V3.30617C67.8559 3.89833 67.5843 4.362 67.1824 4.69909C66.9441 4.899 66.9757 5.62747 67.2452 5.7828C67.9412 6.18396 68.4516 6.85392 68.4516 7.97639V8.08469C68.4516 9.6685 67.3551 11.0357 64.0385 11.0357H53.2339ZM61.6967 3.57691H58.3779C58.2221 3.57691 58.0959 3.70317 58.0959 3.85893V4.26955C58.0959 4.4253 58.2221 4.55156 58.3779 4.55156H61.6967C62.3329 4.55156 62.6036 4.4162 62.6036 4.06424V4.03716C62.6036 3.65813 62.3329 3.57691 61.6967 3.57691ZM61.8997 7.08296H58.3779C58.2221 7.08296 58.0959 7.20922 58.0959 7.36498V8.04633C58.0959 8.20209 58.2221 8.32835 58.3779 8.32835H61.8997C62.7932 8.32835 62.9827 8.07115 62.9827 7.69212V7.66504C62.9827 7.28601 62.7796 7.08296 61.8997 7.08296Z" fill="#FAFF00"/>
<path d="M52.1599 0.964294C52.3157 0.964294 52.442 1.09056 52.442 1.24631V10.7537C52.442 10.9095 52.3157 11.0357 52.1599 11.0357H47.5935C47.4377 11.0357 47.3115 10.9095 47.3115 10.7537V1.24631C47.3115 1.09056 47.4377 0.964294 47.5935 0.964294H52.1599Z" fill="#FAFF00"/>
<path d="M36.6625 4.70273C36.6625 4.85848 36.7887 4.98474 36.9445 4.98474H40.4122C41.1161 4.98474 41.3462 4.71401 41.3462 4.34851C41.3462 3.96948 41.1026 3.71228 40.4122 3.71228H36.9445C36.7887 3.71228 36.6625 3.83854 36.6625 3.9943V4.70273ZM36.9445 7.81395C36.7887 7.81395 36.6625 7.94021 36.6625 8.09597V10.7537C36.6625 10.9095 36.5362 11.0357 36.3805 11.0357H31.8005C31.6447 11.0357 31.5185 10.9095 31.5185 10.7537V1.24631C31.5185 1.09056 31.6447 0.964294 31.8005 0.964294H42.6458C44.8117 0.964294 46.6121 1.50577 46.6121 3.50922V3.63106C46.6121 4.4856 46.1648 5.05632 45.6097 5.42562C45.352 5.597 45.3622 6.29294 45.621 6.46254C46.3205 6.9209 46.6662 7.6194 46.6662 8.49079V10.0205C46.6662 10.5083 46.7304 10.7522 46.8339 10.9397C46.8393 10.9494 46.8422 10.9604 46.8422 10.9715C46.8422 11.007 46.8135 11.0357 46.778 11.0357H41.6661C41.5913 11.0357 41.5122 11.0069 41.4948 10.9342C41.4816 10.8789 41.4816 10.8108 41.4816 10.7244V9.50606C41.4816 8.47726 40.9807 7.81395 39.5323 7.81395H36.9445Z" fill="#FAFF00"/>
<path d="M24.1773 6.85283C24.3811 6.85283 24.5176 6.64329 24.4352 6.45686L23.6391 4.65471C23.5397 4.42963 23.2199 4.43093 23.1223 4.65682L22.3437 6.45896C22.2632 6.64515 22.3997 6.85283 22.6026 6.85283H24.1773ZM26.6355 11.0357C26.5235 11.0357 26.4221 10.9695 26.3772 10.8669L25.9972 9.99977C25.9523 9.8972 25.8509 9.83094 25.7389 9.83094H21.0718C20.9598 9.83094 20.8585 9.8972 20.8135 9.99977L20.4335 10.8669C20.3886 10.9695 20.2872 11.0357 20.1752 11.0357H15.6063C15.3994 11.0357 15.263 10.8204 15.3512 10.6334L19.8366 1.12598C19.8831 1.02727 19.9825 0.964294 20.0916 0.964294H26.9675C27.0742 0.964294 27.1717 1.02453 27.2196 1.11992L31.986 10.6273C32.0801 10.8148 31.9437 11.0357 31.7339 11.0357H26.6355Z" fill="#FAFF00"/>
</svg>
